<?xml version="1.0" standalone="no"?>
<!DOCTYPE svg PUBLIC "-//W3C//DTD SVG 20010904//EN"
 "http://www.w3.org/TR/2001/REC-SVG-20010904/DTD/svg10.dtd">
<svg version="1.0" xmlns="http://www.w3.org/2000/svg"
 width="512.000000pt" height="512.000000pt" viewBox="0 0 512.000000 512.000000"
 preserveAspectRatio="xMidYMid meet">

<g transform="translate(0.000000,512.000000) scale(0.100000,-0.100000)"
fill="#000000" stroke="none">
<path d="M3277 4393 c-3 -4 -22 -64 -42 -133 -36 -120 -36 -125 -19 -137 11
-7 66 -44 124 -82 251 -166 473 -418 615 -700 348 -696 197 -1517 -381 -2071
-120 -115 -209 -180 -392 -287 -10 -6 -4 -37 29 -138 22 -71 42 -131 44 -133
5 -5 125 58 220 116 256 155 515 412 675 671 152 245 255 527 296 811 25 174
15 491 -20 658 -70 327 -220 639 -428 887 -159 191 -367 365 -572 478 -111 62
-141 74 -149 60z"/>
<path d="M660 3015 l0 -135 910 0 910 0 0 135 0 135 -910 0 -910 0 0 -135z"/>
<path d="M660 2105 l0 -135 910 0 910 0 0 135 0 135 -910 0 -910 0 0 -135z"/>
</g>
</svg>
